# xmcd
#
# Track frame offsets: 
#        150
#        12993
#        20798
#        44543
#        60935
#        76340
#        87598
#        94005
#        109523
#        131405
#        142148
#        163530
#        173903
#        185913
#        201855
#        220855
#        237555
#        251415
#        267690
#        279665
#        290908
#
# Disc length: 4127 seconds
#
# Revision: 2
# Processed by: cddbd v1.5.2PL0 Copyright (c) Steve Scherf et al.
# Submitted via: ExactAudioCopy v0.95b4
#
DISCID=44101d15
DTITLE=Hooker, John Lee  - The Vee-Jay Years - CD 6
DYEAR=1900
DGENRE=Blues
TTITLE0=I can't quit you now blues
TTITLE1=Stop baby, don't hold me
TTITLE2=Tupelo
TTITLE3=Bus station blues
TTITLE4=Freight train to my friend
TTITLE5=Boom, boom, boom
TTITLE6=Talk that talk baby
TTITLE7=Sometime baby you make me feel so bad
TTITLE8=You've got to walk yourself
TTITLE9=Let's make it
TTITLE10=The mighty fire
TTITLE11=Big legs, tight skirt
TTITLE12=Flowers on the hour
TTITLE13=It serves me right to suffer
TTITLE14=It ain't no big thing baby
TTITLE15=She left me one wednesday
TTITLE16=You can run
TTITLE17=New Sally Mae
TTITLE18=Your baby ain't sweet like mine
TTITLE19=She's long, she's tall
TTITLE20=You're mellow
EXTD=
EXTT0=
EXTT1=
EXTT2=
EXTT3=
EXTT4=
EXTT5=
EXTT6=
EXTT7=
EXTT8=
EXTT9=
EXTT10=
EXTT11=
EXTT12=
EXTT13=
EXTT14=
EXTT15=
EXTT16=
EXTT17=
EXTT18=
EXTT19=
EXTT20=
PLAYORDER=
